<svg xmlns="http://www.w3.org/2000/svg" viewBox="0 0 48 48"><defs><style>.cls-1{fill:none;}.cls-2{fill:#fff;}.cls-3{opacity:0.77;}</style></defs><title>Icon Placeholdernote-logo</title><g id="Icons"><path class="cls-1" d="M0,0H48V48H0Z"/><path class="cls-2" d="M38,4H29.63A6,6,0,0,0,18.37,4H10A4,4,0,0,0,6,8V40a4,4,0,0,0,4,4H38a4,4,0,0,0,4-4V8A4,4,0,0,0,38,4ZM24,4a2,2,0,1,1-2,2A2,2,0,0,1,24,4ZM38,40H10V8h4v6H34V8h4Z"/><g class="cls-3"><rect class="cls-1" x="-26" y="-21" width="100" height="100"/></g></g></svg>