<svg xmlns="http://www.w3.org/2000/svg" viewBox="0 0 48 48"><defs><style>.cls-1{opacity:0.77;}.cls-2{fill:none;}</style></defs><title>Icon Placeholdersetting-icon</title><g id="Icons"><g class="cls-1"><rect class="cls-2" x="-26" y="-21" width="100" height="100"/></g><g class="cls-1"><path class="cls-2" d="M0,0H48V48H0Z"/><path d="M38.86,26A15.7,15.7,0,0,0,39,24a15.7,15.7,0,0,0-.14-1.95l4.23-3.31a1,1,0,0,0,.24-1.28l-4-6.93a1,1,0,0,0-1.22-.43l-5,2a15.18,15.18,0,0,0-3.38-2L29,4.84A1,1,0,0,0,28,4H20a1,1,0,0,0-1,.84l-.75,5.3a14.8,14.8,0,0,0-3.38,2l-5-2a1,1,0,0,0-1.22.43l-4,6.93a1,1,0,0,0,.24,1.28l4.22,3.31A15.7,15.7,0,0,0,9,24,15.7,15.7,0,0,0,9.14,26L4.92,29.26a1,1,0,0,0-.24,1.28l4,6.93a1,1,0,0,0,1.22.43l5-2a15.18,15.18,0,0,0,3.38,2l.75,5.3A1,1,0,0,0,20,44h8a1,1,0,0,0,1-.84l.75-5.3a14.8,14.8,0,0,0,3.38-2l5,2a1,1,0,0,0,1.22-.43l4-6.93a1,1,0,0,0-.24-1.28ZM24,31a7,7,0,1,1,7-7A7,7,0,0,1,24,31Z"/></g></g></svg>